<svg width="170" height="44" viewBox="0 0 170 44" fill="none" xmlns="http://www.w3.org/2000/svg">
<rect x="0.496277" y="0.283691" width="43.4328" height="43.4328" rx="21.7164" fill="white"/>
<path d="M22.2132 29.4775V26.3181H15.403H14.736C12.9808 26.3181 11.5766 27.7223 11.5766 29.4775C11.5766 31.2327 12.9808 32.6369 14.736 32.6369H19.0539C20.8091 32.6369 22.2132 31.2327 22.2132 29.4775Z" fill="#7FC8FF"/>
<path fill-rule="evenodd" clip-rule="evenodd" d="M29.0253 11.3638H15.4048C13.2986 11.3638 11.5784 13.0839 11.5784 15.1901V22.4918V29.4776C11.5784 27.7224 12.9826 26.3182 14.7378 26.3182H15.4048H22.2151H29.0253C31.1316 26.3182 32.8517 24.5981 32.8517 22.4918V15.1901C32.8517 13.0839 31.1316 11.3638 29.0253 11.3638ZM25.581 18.2506C25.2006 18.2506 24.8923 18.5589 24.8923 18.9393C24.8923 19.3196 25.2006 19.628 25.581 19.628H28.3357C28.716 19.628 29.0244 19.3196 29.0244 18.9393C29.0244 18.5589 28.716 18.2506 28.3357 18.2506H25.581Z" fill="#006BE9"/>
<path d="M164.736 12.5665C164.736 11.1643 165.746 10.1548 167.148 10.1548C168.55 10.1548 169.504 11.1643 169.504 12.5665C169.504 13.9686 168.494 14.9782 167.148 14.9782C165.746 14.9782 164.736 13.9686 164.736 12.5665ZM165.185 12.5665C165.185 13.7443 165.97 14.5856 167.148 14.5856C168.326 14.5856 169.111 13.7443 169.111 12.5665C169.111 11.3887 168.326 10.5474 167.148 10.5474C165.97 10.5474 165.185 11.3887 165.185 12.5665ZM167.541 12.7908L168.27 13.8004H167.653L166.98 12.7908H166.699V13.8004H166.195V11.2204H167.316C167.821 11.2204 168.158 11.5008 168.158 12.0056C168.158 12.4543 167.933 12.7347 167.541 12.7908ZM166.699 11.7252V12.3982H167.26C167.485 12.3982 167.653 12.286 167.653 12.0617C167.653 11.8374 167.485 11.7252 167.26 11.7252H166.699Z" fill="white"/>
<path d="M78.5323 22.3813C78.5323 19.1844 76.7937 17.5579 74.2698 17.5579C71.6338 17.5579 69.839 19.2405 69.839 22.6056V31.2428H67.2591V22.3813C67.2591 19.1844 65.5204 17.5579 62.9966 17.5579C60.3605 17.5579 58.5658 19.2405 58.5658 22.6056V31.2428H55.9858V15.5949H58.5658V17.8383C59.5753 16.1557 61.4262 15.3145 63.5013 15.3145C66.0813 15.3145 68.2126 16.4362 69.2221 18.7918C70.1195 16.5483 72.3629 15.3145 74.7746 15.3145C78.3641 15.3145 81.1123 17.5579 81.1123 22.0447V31.2428H78.5323V22.3813Z" fill="white"/>
<path d="M93.1146 15.5952H95.8067L86.3843 38.5904H83.6922L86.7769 31.0749L80.4953 15.5952H83.3557L88.2912 28.2706L93.1146 15.5952Z" fill="white"/>
<path d="M105.902 24.0639H102.873V31.2428H97.9937V11.2202H105.902C110.837 11.2202 113.249 13.9684 113.249 17.6701C113.249 20.9791 111.006 24.0639 105.902 24.0639ZM105.509 20.1939C107.472 20.1939 108.257 19.2405 108.257 17.6701C108.257 16.1558 107.416 15.1462 105.509 15.1462H102.873V20.1939H105.509Z" fill="white"/>
<path d="M120.26 15.0901C122.615 15.0901 124.298 16.1557 125.195 17.5579V15.3144H130.075V31.2428H125.195V28.9994C124.298 30.4015 122.615 31.4671 120.26 31.4671C116.39 31.4671 113.249 28.2702 113.249 23.2225C113.249 18.2309 116.334 15.0901 120.26 15.0901ZM121.662 19.3526C119.811 19.3526 118.184 20.6987 118.184 23.2786C118.184 25.8025 119.867 27.2607 121.662 27.2607C123.513 27.2607 125.139 25.8586 125.139 23.3347C125.139 20.8108 123.569 19.3526 121.662 19.3526Z" fill="white"/>
<path d="M132.039 10.1548H136.918V31.2991H132.039V10.1548Z" fill="white"/>
<path d="M139.161 10.1548H144.041V31.2991H139.161V10.1548Z" fill="white"/>
<path d="M157.893 15.3145H163.165L153.182 38.8144H147.91L151.555 30.682L145.049 15.3145H150.49L154.191 25.2977L157.893 15.3145Z" fill="white"/>
</svg>
