<svg width="579" height="335" viewBox="0 0 579 335" fill="none" xmlns="http://www.w3.org/2000/svg">
<g clip-path="url(#clip0_4746_9844)">
<g opacity="0.4">
<g opacity="0.4">
<path opacity="0.4" d="M342.989 135.138C313.246 117.975 265.168 117.975 235.633 135.138C235.495 135.207 235.357 135.31 235.219 135.379C216.195 146.615 209.715 162.296 215.747 176.564C218.952 184.181 225.707 191.384 235.977 197.312C265.72 214.475 313.798 214.475 343.368 197.312C372.904 180.148 372.731 152.301 342.989 135.138Z" fill="white"/>
<path opacity="0.4" d="M356.844 127.073C319.45 105.499 258.828 105.499 221.71 127.073C220.71 127.659 219.745 128.245 218.815 128.831L220.71 129.589C221.572 129.038 222.433 128.521 223.329 128.004C259.586 106.946 318.761 106.946 355.259 128.004C391.756 149.062 391.963 183.354 355.707 204.411C319.45 225.469 260.275 225.469 223.778 204.411C210.405 196.691 201.893 187.179 198.274 177.184L195.965 177.253C199.618 187.558 208.372 197.346 222.158 205.342C259.551 226.916 320.174 226.916 357.327 205.342C394.445 183.767 394.238 148.683 356.844 127.073Z" fill="white"/>
<path opacity="0.4" d="M370.353 119.25C325.48 93.3328 252.692 93.3328 208.129 119.25C206.303 120.318 204.545 121.421 202.856 122.524L207.923 124.523C209.37 123.558 210.887 122.627 212.437 121.731C254.656 97.1929 323.585 97.1929 366.079 121.731C408.574 146.27 408.815 186.18 366.596 210.718C324.377 235.257 255.449 235.257 212.954 210.718C196.825 201.413 186.762 189.867 182.833 177.77L176.732 177.977C180.799 190.867 191.449 203.239 208.681 213.165C253.553 239.082 326.342 239.082 370.939 213.165C415.467 187.317 415.225 145.133 370.353 119.25Z" fill="white"/>
<path opacity="0.4" d="M397.96 103.19C337.751 68.4496 240.114 68.4496 180.318 103.19C120.488 137.964 120.833 194.52 181.007 229.26C206.339 243.873 238.287 252.351 271.269 254.66L270.959 247.113C241.389 244.803 212.852 237.083 190.106 223.953C134.963 192.108 134.653 140.308 189.451 108.463C244.249 76.6177 333.684 76.6177 388.827 108.463C424.566 129.107 437.284 158.091 426.91 184.629L439.145 187.179C451.104 157.988 437.353 125.936 397.96 103.19Z" fill="white"/>
<path opacity="0.4" d="M171.115 235.016C105.426 197.07 105.082 135.379 170.323 97.4341C235.598 59.4889 342.162 59.4889 407.85 97.4341C473.539 135.379 473.884 197.07 408.609 235.016C343.368 272.961 236.839 272.961 171.115 235.016ZM410.022 96.1934C377.625 77.4793 334.614 67.1744 288.949 67.1744C243.283 67.1744 200.375 77.4793 168.186 96.1934C135.996 114.907 118.35 139.756 118.523 166.225C118.661 192.693 136.582 217.542 168.978 236.256C201.375 254.97 244.386 265.275 290.051 265.275C335.717 265.275 378.59 254.97 410.78 236.256C442.97 217.542 460.615 192.659 460.477 166.225C460.34 139.756 442.418 114.907 410.022 96.1934Z" fill="white"/>
<path opacity="0.4" d="M507.243 121.731L502.005 122.627C525.302 160.573 517.479 203.55 478.534 238.014L482.911 239.806C507.519 218.162 520.65 192.762 520.512 166.19C520.409 150.819 515.859 135.827 507.243 121.731ZM444.105 67.1055C401.403 44.7037 346.64 32.4344 288.74 32.4344C227.049 32.4344 169.114 46.358 125.62 71.6203C82.1263 96.8827 58.277 130.485 58.4838 166.225C58.6905 201.964 82.8845 235.567 126.654 260.829C170.424 286.092 228.531 300.015 290.222 300.015C327.167 300.015 362.769 295.018 394.717 285.609L392.064 282.886C307.523 307.666 201.304 299.602 130.411 258.692C42.1132 207.72 41.6652 124.799 129.377 73.8261C214.435 24.4043 351.637 22.8878 440.348 69.3112L444.105 67.1055Z" fill="white"/>
<path opacity="0.4" d="M476.366 57.6279C451.001 42.9805 421.396 31.6073 388.482 23.8873C356.672 16.4431 323.104 12.652 288.674 12.652C254.244 12.652 220.71 16.4431 188.969 23.8873C156.124 31.6073 126.657 42.9805 101.464 57.6279C76.2359 72.2752 56.7636 89.3695 43.4948 108.428C30.7086 126.832 24.2982 146.27 24.4016 166.225C24.505 186.18 31.1566 205.617 44.1497 224.021C44.9768 225.228 45.8729 226.399 46.7345 227.571L51.8697 226.606C10.03 171.498 27.7447 104.844 105.22 59.8336C206.166 1.17538 371.009 1.17538 472.644 59.8336C574.279 118.492 574.796 213.992 473.85 272.651C411.022 309.148 323.483 322.968 241.802 314.042L240.493 317.109C256.863 318.902 273.509 319.832 290.397 319.832C324.827 319.832 358.361 316.041 390.102 308.597C422.947 300.877 452.379 289.504 477.607 274.856C502.835 260.209 522.342 243.115 535.542 224.056C548.328 205.652 554.738 186.214 554.635 166.259C554.531 146.304 547.88 126.867 534.887 108.463C521.446 89.4039 501.732 72.3097 476.366 57.6279Z" fill="white"/>
<path opacity="0.4" d="M493.389 47.7367C465.68 31.7452 433.421 19.3726 397.475 10.9288C377.417 6.24166 356.738 2.86416 335.577 0.865234L335.956 1.8647C393.167 7.34452 448.137 22.8535 492.321 48.357C604.881 113.357 605.501 219.093 493.665 284.093C381.828 349.092 199.236 349.092 86.676 284.093C-25.8843 219.093 -26.4702 113.357 85.3664 48.357C98.773 40.5681 113.214 33.7097 128.447 27.7818L128.102 26.8168C112.455 32.8826 97.8424 39.8788 84.298 47.7367C56.761 63.7281 35.4621 82.3733 21.0216 103.19C7.06352 123.248 0.0672659 144.478 0.205123 166.259C0.34298 188.006 7.58048 209.236 21.7453 229.329C36.4271 250.111 57.8983 268.756 85.6076 284.748C113.317 300.739 145.575 313.112 181.522 321.555C216.227 329.689 252.863 333.825 290.463 333.825C328.029 333.825 364.63 329.689 399.267 321.555C435.11 313.112 467.231 300.739 494.768 284.748C522.27 268.756 543.569 250.111 558.01 229.329C571.933 209.236 578.964 188.041 578.826 166.259C578.688 144.512 571.451 123.282 557.286 103.19C542.57 82.3733 521.098 63.7281 493.389 47.7367Z" fill="white"/>
</g>
</g>
<g opacity="0.2">
<path opacity="0.2" d="M425.084 173.324C422.292 181.286 416.054 188.075 406.335 193.727C398.684 198.173 390.447 201.172 381.59 202.688C372.733 204.239 364.048 204.963 355.569 204.928C347.091 204.859 332.34 204.515 311.352 203.825C305.493 203.653 300.564 203.653 296.601 203.825C292.638 203.998 289.329 204.308 286.675 204.79C284.021 205.273 281.575 205.893 279.3 206.617C277.06 207.341 273.234 208.719 267.823 210.684C256.76 215.13 246.697 214.716 237.667 209.512C232.98 206.789 230.533 203.619 230.361 200C230.188 196.381 233.152 192.797 239.149 189.316C246.697 184.939 254.417 181.803 262.275 179.942C270.132 178.08 278.128 177.081 286.193 176.874C294.257 176.702 304.459 176.84 316.832 177.322C327.653 177.736 335.615 177.943 340.75 177.943C345.885 177.943 350.917 177.529 355.811 176.736C360.705 175.944 365.013 174.462 368.7 172.325C375.903 168.155 379.246 163.054 378.833 157.092C378.385 151.129 373.939 145.684 365.426 140.756C355.466 135 345.678 132.243 335.959 132.415C326.275 132.588 314.936 134.587 301.977 138.343C288.743 142.479 277.852 142.065 269.236 137.102C264.17 134.173 261.654 130.692 261.758 126.625C261.827 122.559 263.929 119.319 268.065 116.906C276.612 111.944 287.985 108.497 302.288 106.602C316.556 104.706 331.858 105.12 348.194 107.877C364.53 110.634 379.729 116.114 393.859 124.247C406.956 131.829 416.158 139.894 421.362 148.476C426.635 157.092 427.875 165.363 425.084 173.324Z" fill="black"/>
</g>
<path d="M371.01 133.725C370.597 127.9 366.22 122.593 357.948 117.837C348.264 112.254 338.683 109.531 329.274 109.703C319.831 109.876 308.802 111.806 296.188 115.459C283.299 119.491 272.684 119.078 264.309 114.253C259.449 111.427 257.003 108.083 257.003 104.189L256.934 122.765C256.934 126.66 259.346 130.037 264.24 132.829C272.615 137.654 283.23 138.067 296.119 134.035C308.733 130.382 319.762 128.452 329.205 128.28C338.648 128.107 348.195 130.795 357.879 136.413C366.151 141.204 370.493 146.511 370.941 152.301C370.976 152.646 370.976 152.99 370.976 153.335L371.045 134.759C371.045 134.414 371.045 134.104 371.01 133.725Z" fill="#4D826E"/>
<path d="M417.431 141.376L417.362 159.952C417.362 162.709 416.88 165.432 415.949 168.086L416.018 149.51C416.949 146.856 417.397 144.133 417.431 141.376Z" fill="#4D826E"/>
<path d="M397.753 169.395C390.309 173.703 382.279 176.633 373.628 178.115C364.978 179.631 356.534 180.355 348.297 180.286C340.026 180.252 325.689 179.873 305.217 179.218C299.496 179.08 294.74 179.08 290.88 179.218C287.02 179.356 283.78 179.7 281.195 180.183C278.61 180.665 276.232 181.251 274.027 181.975C271.821 182.699 268.099 184.008 262.86 185.938C252.073 190.246 242.285 189.867 233.497 184.801C228.913 182.147 226.535 179.08 226.397 175.53C226.397 175.427 226.397 175.323 226.397 175.254L226.328 193.831C226.328 193.934 226.328 194.037 226.328 194.106C226.466 197.622 228.844 200.723 233.428 203.377C242.251 208.478 252.004 208.857 262.791 204.515C268.03 202.585 271.787 201.275 273.958 200.551C276.163 199.827 278.542 199.242 281.126 198.759C283.711 198.277 286.916 197.966 290.811 197.794C294.671 197.656 299.461 197.656 305.148 197.794C325.62 198.449 339.957 198.828 348.228 198.862C356.465 198.897 364.943 198.173 373.56 196.691C382.21 195.209 390.24 192.28 397.685 187.972C407.128 182.492 413.228 175.875 415.951 168.12L416.02 149.544C413.262 157.298 407.197 163.916 397.753 169.395Z" fill="#4D826E"/>
<path d="M415.987 149.544C413.264 157.299 407.164 163.916 397.721 169.396C390.276 173.704 382.246 176.633 373.596 178.115C364.945 179.631 356.501 180.355 348.264 180.286C339.993 180.252 325.656 179.873 305.184 179.218C299.463 179.08 294.707 179.08 290.847 179.218C286.987 179.356 283.747 179.7 281.162 180.183C278.578 180.665 276.2 181.251 273.994 181.975C271.788 182.699 268.066 184.008 262.827 185.938C252.04 190.246 242.252 189.867 233.464 184.801C228.88 182.147 226.502 179.08 226.364 175.53C226.226 171.98 229.052 168.534 234.946 165.122C242.287 160.848 249.8 157.815 257.485 155.989C265.171 154.197 272.925 153.197 280.783 153.025C288.641 152.853 298.601 152.991 310.629 153.439C321.175 153.852 328.93 154.059 333.927 154.059C338.925 154.059 343.818 153.68 348.609 152.887C353.4 152.094 357.57 150.681 361.154 148.579C368.15 144.512 371.424 139.549 371.011 133.725C370.597 127.9 366.22 122.593 357.949 117.837C348.264 112.254 338.683 109.531 329.275 109.703C319.831 109.876 308.803 111.806 296.189 115.459C283.299 119.491 272.684 119.078 264.309 114.253C259.381 111.392 256.934 107.98 257.003 104.017C257.072 100.053 259.105 96.8826 263.138 94.5735C271.443 89.7485 282.541 86.4055 296.465 84.5444C310.354 82.6834 325.277 83.0969 341.165 85.7851C357.053 88.4734 371.907 93.7809 385.624 101.742C398.41 109.117 407.336 116.975 412.437 125.35C417.538 133.725 418.709 141.79 415.987 149.544Z" fill="#95D6BE"/>
<g opacity="0.2">
<path opacity="0.2" d="M228.983 212.441C234.945 215.888 237.944 219.955 237.978 224.676C238.013 229.363 235.049 233.465 229.121 236.911C222.538 240.737 215.232 242.529 207.202 242.253C199.171 241.977 192.382 240.22 186.764 237.014C180.974 233.671 177.804 229.674 177.218 225.021C176.632 220.368 179.665 216.095 186.351 212.235C192.279 208.788 199.344 207.099 207.546 207.134C215.783 207.168 222.917 208.926 228.983 212.441Z" fill="black"/>
</g>
<path d="M174.736 221.781L174.805 203.205C174.805 203.55 174.84 203.929 174.874 204.273C175.426 208.581 178.39 212.304 183.766 215.405C188.97 218.404 195.277 220.024 202.756 220.299C210.235 220.541 217.024 218.886 223.124 215.336C228.638 212.131 231.361 208.34 231.361 203.963L231.292 222.539C231.327 226.916 228.57 230.707 223.055 233.913C216.921 237.462 210.131 239.117 202.687 238.875C195.208 238.634 188.901 236.98 183.697 233.982C178.321 230.88 175.357 227.158 174.805 222.85C174.771 222.505 174.736 222.126 174.736 221.781Z" fill="#4D826E"/>
<path d="M222.988 192.59C228.536 195.795 231.328 199.586 231.328 203.963C231.362 208.34 228.605 212.131 223.091 215.336C216.956 218.886 210.167 220.541 202.723 220.299C195.244 220.058 188.937 218.404 183.733 215.405C178.356 212.304 175.392 208.581 174.841 204.273C174.29 199.965 177.116 196.002 183.319 192.383C188.833 189.178 195.416 187.593 203.033 187.662C210.718 187.696 217.37 189.35 222.988 192.59Z" fill="#95D6BE"/>
</g>
<defs>
<clipPath id="clip0_4746_9844">
<rect width="579" height="333.27" fill="white" transform="translate(0 0.865234)"/>
</clipPath>
</defs>
</svg>
